ffmpeg started on 2016-11-27 at 14:40:31
Report written to "Output/NVENCh264/results/ffmpeg/crowd_run_2160p50llhq13000k.log"
Command line:
Tools/ffmpeg/ffmpeg -benchmark -y -i Input/y4m/crowd_run_2160p50.y4m -c:v h264_nvenc -preset llhq -b:v 13000k -an Output/NVENCh264/encoded/crowd_run_2160p50llhq13000k.mkv
ffmpeg version N-82227-gdb23fde Copyright (c) 2000-2016 the FFmpeg developers
  built with gcc 5.4.0 (Ubuntu 5.4.0-6ubuntu1~16.04.2) 20160609
  configuration: --prefix=/home/jaroslav/ffmpeg_build --pkg-config-flags=--static --extra-cflags=-I/home/jaroslav/ffmpeg_build/include --extra-ldflags=-L/home/jaroslav/ffmpeg_build/lib --bindir=/home/jaroslav/bin --enable-gpl --enable-libass --enable-libfdk-aac --enable-libfreetype --enable-libmp3lame --enable-libopus --enable-libtheora --enable-libvorbis --enable-libvpx --enable-libx264 --enable-libx265 --enable-nvenc --enable-libmfx --enable-libxvid --enable-libgsm --enable-libopencore-amrnb --enable-version3 --enable-nonfree
  libavutil      55. 35.100 / 55. 35.100
  libavcodec     57. 66.101 / 57. 66.101
  libavformat    57. 57.100 / 57. 57.100
  libavdevice    57.  2.100 / 57.  2.100
  libavfilter     6. 66.100 /  6. 66.100
  libswscale      4.  3.100 /  4.  3.100
  libswresample   2.  4.100 /  2.  4.100
  libpostproc    54.  2.100 / 54.  2.100
Input #0, yuv4mpegpipe, from 'Input/y4m/crowd_run_2160p50.y4m':
  Duration: 00:00:10.00, start: 0.000000, bitrate: 4976642 kb/s
    Stream #0:0: Video: rawvideo (I420 / 0x30323449), yuv420p(progressive), 3840x2160, SAR 1:1 DAR 16:9, 50 fps, 50 tbr, 50 tbn, 50 tbc
[h264_nvenc @ 0x2c181c0] The variable bitrate rate-control requires the 'qmin' and/or 'qmax' option set.
Output #0, matroska, to 'Output/NVENCh264/encoded/crowd_run_2160p50llhq13000k.mkv':
  Metadata:
    encoder         : Lavf57.57.100
    Stream #0:0: Video: h264 (h264_nvenc) (Main) (H264 / 0x34363248), yuv420p, 3840x2160 [SAR 1:1 DAR 16:9], q=-1--1, 13000 kb/s, 50 fps, 1k tbn, 50 tbc
    Metadata:
      encoder         : Lavc57.66.101 h264_nvenc
    Side data:
      cpb: bitrate max/min/avg: 0/0/13000000 buffer size: 26000000 vbv_delay: -1
Stream mapping:
  Stream #0:0 -> #0:0 (rawvideo (native) -> h264 (h264_nvenc))
Press [q] to stop, [?] for help
frame=   12 fps=0.0 q=0.0 size=       0kB time=00:00:00.00 bitrate=N/A speed=   0x    frame=   22 fps= 22 q=0.0 size=       0kB time=00:00:00.00 bitrate=N/A speed=   0x    frame=   37 fps= 24 q=42.0 size=       1kB time=00:00:00.12 bitrate=  49.5kbits/s speed=0.0796x    frame=   55 fps= 27 q=40.0 size=       1kB time=00:00:00.48 bitrate=  12.4kbits/s speed=0.236x    frame=   73 fps= 29 q=41.0 size=       1kB time=00:00:00.84 bitrate=   7.1kbits/s speed=0.329x    frame=   91 fps= 30 q=42.0 size=       1kB time=00:00:01.20 bitrate=   5.0kbits/s speed=0.391x    frame=  108 fps= 30 q=41.0 size=       1kB time=00:00:01.54 bitrate=   3.9kbits/s speed=0.43x    frame=  122 fps= 25 q=41.0 size=       1kB time=00:00:01.82 bitrate=   3.3kbits/s speed=0.375x    frame=  123 fps= 15 q=41.0 size=       1kB time=00:00:01.84 bitrate=   3.3kbits/s speed=0.219x    frame=  124 fps= 11 q=41.0 size=       1kB time=00:00:01.86 bitrate=   3.2kbits/s speed=0.171x    frame=  142 fps= 12 q=41.0 size=       1kB time=00:00:02.22 bitrate=   2.7kbits/s speed=0.195x    frame=  160 fps= 13 q=41.0 size=       1kB time=00:00:02.58 bitrate=   2.3kbits/s speed=0.216x    frame=  177 fps= 14 q=41.0 size=       1kB time=00:00:02.92 bitrate=   2.0kbits/s speed=0.235x    frame=  194 fps= 15 q=41.0 size=    5150kB time=00:00:03.26 bitrate=12937.4kbits/s speed=0.252x    frame=  211 fps= 16 q=41.0 size=    5150kB time=00:00:03.60 bitrate=11715.9kbits/s speed=0.267x    frame=  228 fps= 16 q=41.0 size=    5150kB time=00:00:03.94 bitrate=10705.1kbits/s speed=0.282x    frame=  246 fps= 17 q=42.0 size=    5150kB time=00:00:04.30 bitrate=9809.1kbits/s speed=0.296x    frame=  264 fps= 18 q=41.0 size=    5150kB time=00:00:04.66 bitrate=9051.5kbits/s speed=0.31x    frame=  282 fps= 18 q=41.0 size=    8034kB time=00:00:05.02 bitrate=13108.6kbits/s speed=0.323x    frame=  300 fps= 19 q=42.0 size=    8034kB time=00:00:05.38 bitrate=12231.6kbits/s speed=0.335x    frame=  313 fps= 19 q=41.0 size=    8034kB time=00:00:05.64 bitrate=11667.8kbits/s speed=0.338x    frame=  331 fps= 19 q=41.0 size=    8034kB time=00:00:06.00 bitrate=10967.9kbits/s speed=0.349x    frame=  349 fps= 20 q=41.0 size=    8034kB time=00:00:06.36 bitrate=10347.2kbits/s speed=0.359x    frame=  367 fps= 20 q=41.0 size=    8034kB time=00:00:06.72 bitrate=9792.9kbits/s speed=0.368x    frame=  385 fps= 21 q=41.0 size=    8034kB time=00:00:07.08 bitrate=9295.1kbits/s speed=0.377x    frame=  403 fps= 21 q=41.0 size=    8034kB time=00:00:07.44 bitrate=8845.4kbits/s speed=0.386x    frame=  421 fps= 21 q=41.0 size=    8034kB time=00:00:07.80 bitrate=8437.2kbits/s speed=0.394x    frame=  439 fps= 22 q=41.0 size=   13157kB time=00:00:08.16 bitrate=13206.5kbits/s speed=0.402x    frame=  453 fps= 22 q=42.0 size=   13157kB time=00:00:08.44 bitrate=12768.5kbits/s speed=0.405x    frame=  467 fps= 22 q=41.0 size=   13157kB time=00:00:08.72 bitrate=12358.5kbits/s speed=0.409x    frame=  485 fps= 22 q=41.0 size=   13157kB time=00:00:09.08 bitrate=11868.6kbits/s speed=0.416x    frame=  500 fps= 22 q=41.0 Lsize=   15990kB time=00:00:09.98 bitrate=13124.3kbits/s speed=0.447x    
video:15986kB audio:0kB subtitle:0kB other streams:0kB global headers:0kB muxing overhead: 0.029794%
bench: utime=1.172s
bench: maxrss=1420832kB
